<?xml version="1.0" encoding="UTF-8"?>
<svg id="Layer_2" data-name="Layer 2" xmlns="http://www.w3.org/2000/svg" viewBox="0 0 812.57 600">
  <defs>
    <style>
      .cls-1 {
        fill: #c1ff78;
      }

      .cls-1, .cls-2, .cls-3, .cls-4 {
        fill-rule: evenodd;
      }

      .cls-5, .cls-4 {
        fill: #55c2c2;
      }

      .cls-2 {
        fill: #caebda;
      }

      .cls-3, .cls-6 {
        fill: #00ea48;
      }
    </style>
  </defs>
  <g id="Layer_1-2" data-name="Layer 1">
    <g>
      <path class="cls-3" d="m694.88,439c-44.85-37.12-108.4-36.34-183.46-50.95-88.83-17.29-101.12-32.07-167.92-67-55.36-28.94-125.83-18.98-192.53-43.62-53.67-19.83-174.57-50.99-129.42,56.34,13.79,32.79,35.88,30.46,80.55,35.65,40.23,4.68,55.5,9.83,91.9,27.29,82.41,39.53,102.19,25.53,193.15,41.31,91.48,15.87,243.62,84.25,264.28,78.97,26.65-6.81,47.54-37.36,43.44-77.98"/>
      <path class="cls-1" d="m598.53,549.62c-40.88-41.78-199.43-49.8-266.75-73.06-57.52-19.87-213.48-77.98-268.62-67.75,1.06,66.06,189.79,236.92,389.59,197.06,49.59-9.9,126.15-17.57,145.78-56.25"/>
      <path class="cls-2" d="m492.09,352.14c59.18,10.87,110.95,10.17,168.55,33.64,73.37,29.9,98.24-10,106.69-77.95,9.11-73.26-34.32-54.23-132.57-26.01-46.83,13.45-132.96,19.95-142.66,70.32"/>
      <g>
        <path class="cls-4" d="m404.65,214.12l.02,1.95h1.37c-.44-.6-.82-1.15-1.39-1.95Z"/>
        <polygon class="cls-4" points="84.52 216.07 84.74 215.14 83.84 216.07 84.52 216.07"/>
        <path class="cls-4" d="m693.17,120.88c-9.8-8.37-16.2-9.51-32.15-9.65-10.72-.1-28.72,2.4-38,1.26-24.13-2.95-29.99-5.24-43.69-21.04-11.94-13.78-48.25-17.84-42.95-6.59l1.71,3.63c-5.26,4.93-17.87,13.13-19.87,23.12-.79,3.96-.63,4.6,2.81,6.08,6.32,2.72,10.95,1.37,18.13,1.1,13.09,25.12,11.36,53.02,25.87,68.26,2.23,2.35,9.34,6.9,10.72,9.82,3.37,7.12,1.52,13.99-.85,19.88-46.16,1.08-96.58,4.82-133.09,4.84-.25-.76-.53-1.62-.83-2.59l.62-.36c.32-.15.64-.3.94-.43,5.48-2.27,3.35-4.84,8.15-8.77,2.86-2.34,13.23-1.75,17.73-20.93,2.03-8.67-.14-8.89-1.77-16.01,1.56.25,3.36-.33,1.86-4.96,1.55.29,1.97.51,2.86.82.94.33.86.4.62-.55-.99-4.03-2.2-2.83-2.44-4.8-.21-1.77.44-3.55-.03-5.07-1.62-5.24-12.92-2.34-9.01,1.36-16.94,5.02-8.38,19.12-27.81,16.4-11.63-1.63-15.66-2.86-22.18-11.68-6.16-8.32-11.09-.55-12.73,6.07-.62,2.49.22,2.63,2.24,3.08-.98,1.75-3.49,3.08,1.02,6.31-1.92,3.09-1.63,5.38,2.01,6.48.02,1.04-.13,2.26.17,3.19.53,1.64.74.89,1.49,1.93,1.99,2.76-.27,2.22,4.04,3.37.46,3.38,1.57,4.65,4.98,4.86-.3,2.32.85,4.84,2.12,6.72.47.69.69,1.19,1.05,1.99,5.61,12.24,14.66,6.18,16.59,12.97.05.18.1.35.14.53-9.49-.16-17.8-.65-24.56-1.6-27.47-2.36-63.37-4.91-101.9-6.82-.27-3.05-.21-7.09,0-13.83,1.77-57.28,37.98-24.53,42.97-68.63,2.16-19.1,7.35-45.28,19.53-54.24,4.88-3.59,9.04-3.27,14.57-5.31,10.64-3.91,39.3-1.14,40.43-14.25-3.94-13.77-15.39-17.77-23.29-27.87-2.63-3.37-2.18-3.68-4.72-7.84-4.32-7.05-6.94-9.34-10.28-11.21,4.73-10.71,1.04-12.77-11.07-6.18-31.36,17.33-49.35,23.83-86.17,31.8-39.07,8.47-65.63,6.42-105.83,3.79-17.76-1.16-35.84-2.51-53.35-3.93-22.91-1.85-32.54-.4-36.86,20.93-1.67,8.26-9.52,81.08-6.29,90.53,3.02,8.82,1.54,6.48,8.1,8.2,5.51-10.59-1.34-28.73-1.71-42.29-.4-14.87,3.1-27.65,3.66-40.84.62,17.21-1.67,27.61,2.2,44.8,3.64,16.17,10.2,23.77,1.86,37.36-8.56,13.95-5.95,43.53-9.64,61.94,0,0-.01,0-.02,0,56.33,43.8,158.85,2.21,305.7,72.84,54.23,26.08,91.11,8.95,140.29-15.38,45.47-22.5,105.2-22.16,144.36-40.35,2.03-.51,3.5-1.26,4.62-2.27.16-.08.33-.16.48-.25-.04-.03-.08-.06-.12-.09,1.98-2.03,2.76-5,3.83-8.95,2.5-9.3,4.93-8.15,7.21-14.15,2.78-7.3.59-14.07,1.55-21.7,3.67-29.17,18.92-43.58-6.02-64.88ZM118.87,179.22c2.92,2.89,12.18,19.26,15.07,32.61-9.34.56-18.19,1.27-26.44,2.15.26-12.49,6.16-23.76,11.37-34.76Zm30.42,31.85c-1.74-6.94-4.79-9.86-6.77-17.15-4.39-16.23,5.7-32.46,10.26-44.27,2.68,4.45.94,4.87,1.3,10.7,19.69,1.34,36.39,7.95,58.98,7.05l44.11-4.94c10.94-.82,14.32-4.61,21.56,32.28.87,4.43,1.08,10.77.9,17.17-44.6-1.76-90.83-2.44-130.35-.82Zm286.15,7.53c2.88.18,2.53.67,3.61,2.99-1.11,0-2.21-.02-3.29-.03-.19-.98-.29-2-.32-2.96Zm153.3-2.09c.21-12.77,1.09-28.05,13.39-29.67,3.79-.5,11.35,1.91,16.59,2.23,32.88,2,36.17-7.15,45.07,2.28,10.7,11.34,13.37,12.01,3.3,30.92-19.36-4.85-47.43-6.08-78.36-5.76Z"/>
      </g>
      <g>
        <polygon class="cls-5" points="122.12 661.79 114.55 661.79 75.71 786.35 36.88 661.79 29.31 661.79 10.99 661.79 0 661.79 0 827.87 29.31 827.87 29.31 720.55 62.77 827.87 88.66 827.87 122.12 720.55 122.12 827.87 151.42 827.87 151.42 661.79 140.43 661.79 122.12 661.79"/>
        <path class="cls-5" d="m272.81,756.31c0-7.98-.98-15.22-2.93-21.74-1.95-6.51-4.97-12.09-9.04-16.73-4.07-4.64-9.24-8.22-15.51-10.75-6.27-2.52-13.72-3.79-22.35-3.79-8.14,0-15.39,1.34-21.74,4.03-6.35,2.69-11.68,6.23-16,10.62-4.32,4.4-7.65,9.28-10.01,14.65-2.36,5.37-3.54,10.75-3.54,16.12h29.31c0-2.6.53-4.88,1.59-6.84,1.06-1.95,2.56-3.66,4.52-5.13,1.95-1.47,4.23-2.52,6.84-3.17,2.6-.65,5.45-.98,8.55-.98,7,0,12.25,1.71,15.75,5.13,3.5,3.42,5.25,8.39,5.25,14.9v.47c-2.49.14-5.05.3-7.69.5-4.32.33-8.43.57-12.33.73-8.47.49-16.24,1.59-23.32,3.3-7.08,1.71-13.15,4.15-18.2,7.33-5.05,3.18-8.96,7.25-11.72,12.21-2.77,4.97-4.15,10.95-4.15,17.95,0,11.08,2.93,19.7,8.79,25.89,5.86,6.19,14.65,9.28,26.38,9.28,7.82,0,14.86-1.34,21.13-4.03,6.27-2.69,11.6-6.43,16-11.23,2.12-2.32,4-4.85,5.64-7.61.1,1.04.21,2.04.34,2.97.57,4.15,1.79,7.53,3.66,10.14,1.87,2.61,4.43,4.48,7.69,5.62,3.26,1.14,7.49,1.71,12.7,1.71h12.21v-24.42h-7.82v-47.14Zm-36.64,40.3c-2.44,2.93-5.58,5.25-9.4,6.96-3.83,1.71-8.35,2.57-13.56,2.57-5.54,0-9.89-1.02-13.07-3.05-3.18-2.03-4.76-5.33-4.76-9.89,0-2.6.61-4.88,1.83-6.84,1.22-1.95,3.05-3.62,5.5-5.01,2.44-1.38,5.45-2.48,9.04-3.3,3.58-.81,7.65-1.38,12.21-1.71,3.58-.32,7.53-.61,11.84-.85,2.66-.15,5.22-.3,7.69-.45v1.31c0,3.58-.61,7.12-1.83,10.62-1.22,3.5-3.05,6.72-5.5,9.65Z"/>
        <polygon class="cls-5" points="297.72 705.76 297.72 733.35 376.75 733.35 297.72 800.27 297.72 827.87 310.67 827.87 422.28 827.87 422.28 800.27 343.26 800.27 422.28 733.35 422.28 705.76 409.34 705.76 297.72 705.76"/>
        <path class="cls-5" d="m514.11,709.17c-4.4,2.28-8.02,5.58-10.87,9.89-2.79,4.22-4.87,9.38-6.25,15.46l-3.15-28.77h-56.66v27.6h31.26v66.92h-31.26v27.6h115.03v-27.6h-54.46v-28.58c0-7.49.37-13.63,1.1-18.44.73-4.8,2.03-8.55,3.91-11.23,1.87-2.69,4.56-4.52,8.06-5.49,3.5-.98,8.1-1.47,13.8-1.47h27.6v-29.31h-22.47c-6.03,0-11.23,1.14-15.63,3.42Z"/>
        <path class="cls-5" d="m673.11,756.31c0-7.98-.98-15.22-2.93-21.74-1.95-6.51-4.97-12.09-9.04-16.73-4.07-4.64-9.24-8.22-15.51-10.75-6.27-2.52-13.72-3.79-22.35-3.79-8.14,0-15.39,1.34-21.74,4.03-6.35,2.69-11.69,6.23-16,10.62-4.32,4.4-7.65,9.28-10.01,14.65-2.36,5.37-3.54,10.75-3.54,16.12h29.31c0-2.6.53-4.88,1.59-6.84,1.06-1.95,2.56-3.66,4.52-5.13,1.95-1.47,4.23-2.52,6.84-3.17,2.6-.65,5.45-.98,8.55-.98,7,0,12.25,1.71,15.75,5.13,3.5,3.42,5.25,8.39,5.25,14.9v.47c-2.49.14-5.05.3-7.69.5-4.32.33-8.43.57-12.33.73-8.47.49-16.24,1.59-23.32,3.3-7.08,1.71-13.15,4.15-18.2,7.33-5.05,3.18-8.96,7.25-11.72,12.21-2.77,4.97-4.15,10.95-4.15,17.95,0,11.08,2.93,19.7,8.79,25.89,5.86,6.19,14.65,9.28,26.38,9.28,7.82,0,14.86-1.34,21.13-4.03,6.27-2.69,11.6-6.43,16-11.23,2.12-2.32,4-4.85,5.64-7.61.1,1.04.21,2.04.34,2.97.57,4.15,1.79,7.53,3.66,10.14,1.87,2.61,4.43,4.48,7.69,5.62,3.25,1.14,7.49,1.71,12.7,1.71h12.21v-24.42h-7.82v-47.14Zm-36.63,40.3c-2.44,2.93-5.58,5.25-9.4,6.96-3.83,1.71-8.35,2.57-13.55,2.57-5.54,0-9.89-1.02-13.07-3.05-3.18-2.03-4.76-5.33-4.76-9.89,0-2.6.61-4.88,1.83-6.84,1.22-1.95,3.05-3.62,5.49-5.01,2.44-1.38,5.45-2.48,9.04-3.3,3.58-.81,7.65-1.38,12.21-1.71,3.58-.32,7.53-.61,11.85-.85,2.66-.15,5.22-.3,7.69-.45v1.31c0,3.58-.61,7.12-1.83,10.62-1.22,3.5-3.05,6.72-5.49,9.65Z"/>
        <path class="cls-5" d="m804.75,803.45v-47.14c0-7.98-.98-15.22-2.93-21.74-1.95-6.51-4.97-12.09-9.04-16.73-4.07-4.64-9.24-8.22-15.51-10.75-6.27-2.52-13.72-3.79-22.35-3.79-8.14,0-15.39,1.34-21.74,4.03-6.35,2.69-11.69,6.23-16,10.62-4.32,4.4-7.65,9.28-10.01,14.65-2.36,5.37-3.54,10.75-3.54,16.12h29.31c0-2.6.53-4.88,1.59-6.84,1.06-1.95,2.56-3.66,4.52-5.13,1.95-1.47,4.23-2.52,6.84-3.17,2.6-.65,5.45-.98,8.55-.98,7,0,12.25,1.71,15.75,5.13,3.5,3.42,5.25,8.39,5.25,14.9v.47c-2.49.14-5.05.3-7.69.5-4.32.33-8.43.57-12.33.73-8.47.49-16.24,1.59-23.32,3.3-7.08,1.71-13.15,4.15-18.2,7.33-5.05,3.18-8.96,7.25-11.72,12.21-2.77,4.97-4.15,10.95-4.15,17.95,0,11.08,2.93,19.7,8.79,25.89,5.86,6.19,14.65,9.28,26.38,9.28,7.82,0,14.86-1.34,21.13-4.03,6.27-2.69,11.6-6.43,16-11.23,2.12-2.32,4-4.85,5.64-7.61.1,1.04.21,2.04.34,2.97.57,4.15,1.79,7.53,3.66,10.14,1.87,2.61,4.43,4.48,7.69,5.62,3.25,1.14,7.49,1.71,12.7,1.71h12.21v-24.42h-7.82Zm-36.63-6.84c-2.44,2.93-5.58,5.25-9.4,6.96-3.83,1.71-8.35,2.57-13.55,2.57-5.54,0-9.89-1.02-13.07-3.05-3.18-2.03-4.76-5.33-4.76-9.89,0-2.6.61-4.88,1.83-6.84,1.22-1.95,3.05-3.62,5.49-5.01,2.44-1.38,5.45-2.48,9.04-3.3,3.58-.81,7.65-1.38,12.21-1.71,3.58-.32,7.53-.61,11.85-.85,2.66-.15,5.22-.3,7.69-.45v1.31c0,3.58-.61,7.12-1.83,10.62-1.22,3.5-3.05,6.72-5.49,9.65Z"/>
      </g>
      <g>
        <polygon class="cls-6" points="13.78 878.44 6.59 862.6 0 862.6 10.54 884.75 10.54 899.34 17.02 899.34 17.02 884.75 27.55 862.6 20.96 862.6 13.78 878.44"/>
        <path class="cls-6" d="m43.49,871.78c-3.93,0-7.02,1.25-9.29,3.76-2.27,2.5-3.4,5.93-3.4,10.29s1.13,7.83,3.4,10.32c2.27,2.49,5.37,3.73,9.29,3.73s7.06-1.24,9.29-3.73c2.23-2.49,3.35-5.92,3.35-10.32s-1.13-7.79-3.38-10.29c-2.25-2.5-5.34-3.76-9.27-3.76Zm4.75,20.72c-1.08,1.53-2.67,2.3-4.75,2.3s-3.64-.76-4.75-2.3c-1.12-1.53-1.67-3.76-1.67-6.67s.55-5.1,1.65-6.64c1.1-1.55,2.69-2.32,4.78-2.32s3.67.77,4.75,2.3c1.08,1.53,1.62,3.75,1.62,6.67s-.54,5.14-1.62,6.67Z"/>
        <path class="cls-6" d="m78.18,883.62c0,2.74-.22,4.86-.65,6.38-.43,1.51-.97,2.64-1.62,3.38-.65.74-1.34,1.19-2.08,1.35-.74.16-1.41.24-2.03.24-.9,0-1.71-.2-2.43-.59-.72-.4-1.33-.97-1.84-1.73-.5-.76-.87-1.69-1.11-2.81-.23-1.12-.35-2.39-.35-3.84v-13.67h-6.65v14.43c0,1.95.22,3.73.65,5.35s1.08,3.01,1.95,4.16c.86,1.15,1.94,2.05,3.24,2.67,1.3.63,2.81.95,4.54.95,3.28,0,5.69-1,7.24-3,.44-.57.81-1.22,1.13-1.92v4.38h6.65v-27.01h-6.65v11.29Z"/>
        <path class="cls-6" d="m105.14,873.08c-.97.51-1.77,1.23-2.4,2.19-.62.93-1.08,2.08-1.38,3.42l-.7-6.37h-12.53v6.11h6.92v14.8h-6.92v6.1h25.45v-6.1h-12.05v-6.32c0-1.66.08-3.02.24-4.08.16-1.06.45-1.89.86-2.49.41-.59,1.01-1,1.78-1.22.77-.22,1.79-.32,3.05-.32h6.1v-6.48h-4.97c-1.33,0-2.49.25-3.46.76Z"/>
        <polygon class="cls-6" points="133.23 862.6 130.75 862.6 130.75 899.34 137.23 899.34 137.23 884.43 153.65 884.43 153.65 878.32 137.23 878.32 137.23 868.71 155.81 868.71 155.81 862.6 137.23 862.6 133.23 862.6"/>
        <path class="cls-6" d="m182.4,883.51c0-1.76-.22-3.37-.65-4.81-.43-1.44-1.1-2.67-2-3.7-.9-1.03-2.04-1.82-3.43-2.38-1.39-.56-3.03-.84-4.94-.84-1.8,0-3.4.3-4.81.89s-2.58,1.38-3.54,2.35c-.95.97-1.69,2.05-2.22,3.24-.52,1.19-.78,2.38-.78,3.57h6.48c0-.58.12-1.08.35-1.51.23-.43.57-.81,1-1.13s.94-.56,1.51-.7c.58-.14,1.21-.22,1.89-.22,1.55,0,2.71.38,3.48,1.13.77.76,1.16,1.86,1.16,3.3v.11c-.55.03-1.12.07-1.7.11-.95.07-1.86.13-2.73.16-1.87.11-3.59.35-5.16.73-1.57.38-2.91.92-4.02,1.62-1.12.7-1.98,1.6-2.59,2.7-.61,1.1-.92,2.42-.92,3.97,0,2.45.65,4.36,1.95,5.73s3.24,2.05,5.83,2.05c1.73,0,3.29-.3,4.67-.89,1.39-.59,2.57-1.42,3.54-2.49.47-.51.88-1.08,1.25-1.69.02.23.05.45.07.66.13.92.4,1.67.81,2.24.41.58.98.99,1.7,1.24.72.25,1.66.38,2.81.38h2.7v-5.4h-1.73v-10.43Zm-8.1,8.91c-.54.65-1.23,1.16-2.08,1.54-.85.38-1.85.57-3,.57-1.23,0-2.19-.22-2.89-.68-.7-.45-1.05-1.18-1.05-2.19,0-.58.14-1.08.41-1.51.27-.43.68-.8,1.22-1.11.54-.31,1.21-.55,2-.73.79-.18,1.69-.31,2.7-.38.79-.07,1.67-.13,2.62-.19.59-.03,1.15-.07,1.7-.1v.29c0,.79-.14,1.58-.41,2.35-.27.77-.68,1.49-1.22,2.13Z"/>
        <path class="cls-6" d="m204.98,873.08c-.97.51-1.77,1.23-2.4,2.19-.62.93-1.08,2.08-1.38,3.42l-.7-6.37h-12.53v6.11h6.92v14.8h-6.92v6.1h25.45v-6.1h-12.05v-6.32c0-1.66.08-3.02.24-4.08.16-1.06.45-1.89.86-2.49.41-.59,1.01-1,1.78-1.22.77-.22,1.79-.32,3.05-.32h6.1v-6.48h-4.97c-1.33,0-2.49.25-3.46.76Z"/>
        <path class="cls-6" d="m251.9,875.4c-.63-1.15-1.49-2.04-2.59-2.67-1.1-.63-2.51-.95-4.24-.95-1.62,0-2.95.26-4,.78-1.04.52-1.86,1.28-2.43,2.27-.49.84-.84,1.83-1.09,2.98-.24-.89-.55-1.7-.94-2.41-.63-1.15-1.5-2.04-2.59-2.67-1.1-.63-2.49-.95-4.19-.95s-3,.26-4.03.78c-1.03.52-1.84,1.28-2.43,2.27-.13.21-.24.44-.35.67v-3.18h-6.48v27.01h6.48v-11.29c0-2.74.14-4.87.43-6.4.29-1.53.65-2.67,1.08-3.4.43-.74.94-1.2,1.51-1.38.58-.18,1.15-.27,1.73-.27.94,0,1.67.2,2.22.59.54.4.95.98,1.22,1.76.27.77.43,1.73.49,2.86.05,1.13.08,2.42.08,3.86v13.67h6.54v-11.29c0-2.74.13-4.87.41-6.4.27-1.53.63-2.67,1.08-3.4.45-.74.95-1.2,1.51-1.38.56-.18,1.13-.27,1.7-.27.94,0,1.68.2,2.24.59.56.4.97.98,1.24,1.76s.43,1.73.49,2.86.08,2.42.08,3.86v13.67h6.48v-14.42c0-1.95-.12-3.73-.35-5.35-.23-1.62-.67-3.01-1.3-4.16Z"/>
        <rect class="cls-6" x="257.6" y="891.18" width="8.16" height="8.16"/>
        <polygon class="cls-6" points="285.53 862.6 283.05 862.6 283.05 899.34 289.53 899.34 289.53 884.43 305.96 884.43 305.96 878.32 289.53 878.32 289.53 868.71 308.12 868.71 308.12 862.6 289.53 862.6 285.53 862.6"/>
        <path class="cls-6" d="m329.83,883.62c0,2.74-.22,4.86-.65,6.38-.43,1.51-.97,2.64-1.62,3.38-.65.74-1.34,1.19-2.08,1.35-.74.16-1.41.24-2.03.24-.9,0-1.71-.2-2.43-.59-.72-.4-1.33-.97-1.84-1.73-.5-.76-.87-1.69-1.11-2.81-.23-1.12-.35-2.39-.35-3.84v-13.67h-6.65v14.43c0,1.95.22,3.73.65,5.35s1.08,3.01,1.95,4.16c.86,1.15,1.94,2.05,3.24,2.67,1.3.63,2.81.95,4.54.95,3.28,0,5.69-1,7.24-3,.44-.57.81-1.22,1.13-1.92v4.38h6.65v-27.01h-6.65v11.29Z"/>
        <path class="cls-6" d="m356.85,868.33c0-2.84-.66-4.96-1.97-6.35-1.32-1.39-3.3-2.08-5.97-2.08h-9.13v6.48h9.94c.14,0,.26,0,.35.03.09.02.15.05.19.08.04.04.06.11.08.22.02.11.03.23.03.38v26.15h-9.45v6.1h25.39v-6.1h-9.45v-24.91Z"/>
        <path class="cls-6" d="m386.73,868.33c0-2.84-.66-4.96-1.97-6.35-1.32-1.39-3.3-2.08-5.97-2.08h-9.13v6.48h9.94c.14,0,.26,0,.35.03.09.02.15.05.19.08.04.04.06.11.08.22.02.11.03.23.03.38v26.15h-9.45v6.1h25.39v-6.1h-9.46v-24.91Z"/>
        <path class="cls-6" d="m413.19,894.38l-7.23-22.06h-6.48l9.45,27.01h2.1l-.97,3.08c-.11.29-.21.48-.3.57-.09.09-.22.13-.4.13h-8.37v6.48h7.89c1.33,0,2.4-.19,3.21-.57s1.49-.93,2.05-1.65c.56-.72,1.02-1.6,1.38-2.65.36-1.05.77-2.23,1.24-3.57l.65-1.84h.05l9.45-27.01h-6.54l-7.19,22.06Z"/>
        <path class="cls-6" d="m451.1,874.24c.27-1.24.7-2.29,1.3-3.13.59-.85,1.36-1.49,2.3-1.92.94-.43,2.05-.65,3.35-.65,1.15,0,2.15.18,3,.54.85.36,1.57.86,2.16,1.51.59.65,1.05,1.46,1.38,2.43s.54,2.09.65,3.35h6.38c-.32-4.39-1.62-7.88-3.89-10.45-2.27-2.58-5.49-3.86-9.67-3.86-2.23,0-4.21.39-5.94,1.16-1.73.77-3.17,1.87-4.32,3.3-1.15,1.42-2.03,3.15-2.62,5.19-.59,2.04-.89,4.31-.89,6.83v4.86c0,2.52.3,4.79.89,6.81.59,2.02,1.47,3.75,2.62,5.19,1.15,1.44,2.59,2.55,4.32,3.32,1.73.77,3.71,1.16,5.94,1.16,2.09,0,3.93-.34,5.54-1.03s2.97-1.65,4.11-2.89c1.13-1.24,2.03-2.75,2.7-4.51.67-1.76,1.07-3.73,1.22-5.89h-6.38c-.11,1.26-.33,2.37-.68,3.32-.34.96-.8,1.77-1.38,2.43-.58.67-1.29,1.18-2.13,1.54-.85.36-1.85.54-3,.54-1.3,0-2.41-.22-3.35-.65-.94-.43-1.7-1.07-2.3-1.92-.59-.85-1.03-1.89-1.3-3.13-.27-1.24-.41-2.67-.41-4.3v-4.86c0-1.62.13-3.05.41-4.3Z"/>
        <path class="cls-6" d="m491.05,871.78c-3.93,0-7.02,1.25-9.29,3.76-2.27,2.5-3.4,5.93-3.4,10.29s1.13,7.83,3.4,10.32c2.27,2.49,5.37,3.73,9.29,3.73s7.06-1.24,9.29-3.73c2.23-2.49,3.35-5.92,3.35-10.32s-1.13-7.79-3.38-10.29c-2.25-2.5-5.34-3.76-9.27-3.76Zm4.75,20.72c-1.08,1.53-2.67,2.3-4.75,2.3s-3.64-.76-4.75-2.3c-1.12-1.53-1.68-3.76-1.68-6.67s.55-5.1,1.65-6.64c1.1-1.55,2.69-2.32,4.78-2.32s3.67.77,4.75,2.3c1.08,1.53,1.62,3.75,1.62,6.67s-.54,5.14-1.62,6.67Z"/>
        <path class="cls-6" d="m529.79,875.4c-.87-1.15-1.95-2.04-3.24-2.67-1.3-.63-2.79-.95-4.48-.95-3.31,0-5.77,1-7.37,3-.48.6-.88,1.28-1.22,2.03v-4.49h-6.48v27.01h6.48v-11.29c0-2.74.22-4.87.67-6.4.45-1.53,1.01-2.67,1.68-3.4.67-.74,1.38-1.2,2.13-1.38.76-.18,1.44-.27,2.05-.27.9,0,1.72.2,2.46.59.74.4,1.36.98,1.86,1.76s.89,1.73,1.16,2.86c.27,1.13.41,2.42.41,3.86v13.67h6.48v-14.42c0-1.95-.22-3.73-.65-5.35-.43-1.62-1.08-3.01-1.95-4.16Z"/>
        <path class="cls-6" d="m558.37,875.4c-.87-1.15-1.95-2.04-3.24-2.67-1.3-.63-2.79-.95-4.48-.95-3.31,0-5.77,1-7.37,3-.48.6-.88,1.28-1.22,2.03v-4.49h-6.48v27.01h6.48v-11.29c0-2.74.22-4.87.67-6.4.45-1.53,1.01-2.67,1.68-3.4.67-.74,1.38-1.2,2.13-1.38.76-.18,1.44-.27,2.05-.27.9,0,1.72.2,2.46.59.74.4,1.36.98,1.86,1.76s.89,1.73,1.16,2.86c.27,1.13.41,2.42.41,3.86v13.67h6.48v-14.42c0-1.95-.22-3.73-.65-5.35-.43-1.62-1.08-3.01-1.95-4.16Z"/>
        <path class="cls-6" d="m576.85,871.78c-3.93,0-7.02,1.25-9.29,3.76-2.27,2.5-3.4,5.93-3.4,10.29s1.13,7.83,3.4,10.32c2.27,2.49,5.37,3.73,9.29,3.73,3.17,0,5.79-.81,7.86-2.43,2.07-1.62,3.48-3.91,4.24-6.86h-6.43c-.47,1.41-1.17,2.46-2.11,3.16-.94.7-2.13,1.05-3.57,1.05-2.05,0-3.64-.76-4.75-2.3-.9-1.23-1.43-2.92-1.61-5.05h18.89l.11-1.62c0-4.36-1.13-7.79-3.38-10.29-2.25-2.5-5.34-3.76-9.27-3.76Zm0,5.08c2.09,0,3.67.77,4.75,2.3.7.99,1.17,2.28,1.42,3.86h-12.39c.25-1.55.73-2.84,1.44-3.84,1.1-1.55,2.69-2.32,4.78-2.32Z"/>
        <path class="cls-6" d="m609.61,893.23c-1.03,1.04-2.4,1.57-4.13,1.57-2.05,0-3.64-.76-4.75-2.3-1.12-1.53-1.68-3.76-1.68-6.67s.55-5.1,1.65-6.64c1.1-1.55,2.69-2.32,4.78-2.32,1.66,0,3,.49,4.02,1.46,1.03.97,1.72,2.41,2.08,4.32h6.27c-.54-3.42-1.88-6.09-4.03-8-2.14-1.91-4.93-2.86-8.35-2.86-3.93,0-7.02,1.25-9.29,3.76-2.27,2.5-3.4,5.93-3.4,10.29s1.13,7.83,3.4,10.32c2.27,2.49,5.37,3.73,9.29,3.73,3.53,0,6.37-.99,8.51-2.97,2.14-1.98,3.45-4.75,3.92-8.32h-6.27c-.32,2.05-1,3.6-2.03,4.65Z"/>
        <path class="cls-6" d="m635.41,864.22h-6.48v8.1h-7.73v6.11h7.73v12.48c0,2.85.65,4.96,1.95,6.35,1.3,1.39,3.3,2.08,6,2.08h9.78v-6.48h-10.53c-.14,0-.26,0-.35-.03-.09-.02-.16-.04-.22-.08-.05-.04-.09-.11-.11-.22-.02-.11-.03-.23-.03-.38v-13.72h11.24v-6.11h-11.24v-8.1Z"/>
        <path class="cls-6" d="m662.59,871.78c-3.93,0-7.02,1.25-9.29,3.76-2.27,2.5-3.4,5.93-3.4,10.29s1.13,7.83,3.4,10.32c2.27,2.49,5.37,3.73,9.29,3.73,3.17,0,5.79-.81,7.86-2.43,2.07-1.62,3.48-3.91,4.24-6.86h-6.43c-.47,1.41-1.17,2.46-2.11,3.16-.94.7-2.13,1.05-3.57,1.05-2.05,0-3.64-.76-4.75-2.3-.9-1.23-1.43-2.92-1.61-5.05h18.89l.11-1.62c0-4.36-1.13-7.79-3.38-10.29-2.25-2.5-5.34-3.76-9.27-3.76Zm0,5.08c2.09,0,3.67.77,4.75,2.3.7.99,1.17,2.28,1.42,3.86h-12.39c.25-1.55.73-2.84,1.44-3.84,1.1-1.55,2.69-2.32,4.78-2.32Z"/>
        <path class="cls-6" d="m697.49,876.42s-.03-.09-.05-.13c-.65-1.35-1.59-2.44-2.84-3.27-1.24-.83-2.87-1.24-4.89-1.24-1.59,0-3.05.32-4.4.97s-2.51,1.58-3.48,2.78c-.97,1.21-1.75,2.67-2.32,4.4-.58,1.73-.86,3.69-.86,5.89s.29,4.11.86,5.84c.58,1.73,1.36,3.21,2.35,4.43.99,1.22,2.15,2.16,3.48,2.81,1.33.65,2.79.97,4.38.97,2.02,0,3.65-.41,4.89-1.24,1.24-.83,2.18-1.92,2.81-3.27.03-.06.05-.13.08-.19v4.17h6.48v-39.44h-6.48v16.52Zm-1.43,16.06c-1.1,1.55-2.67,2.32-4.73,2.32s-3.67-.76-4.75-2.3c-1.08-1.53-1.62-3.76-1.62-6.67s.54-5.14,1.62-6.67c1.08-1.53,2.67-2.3,4.75-2.3s3.63.77,4.73,2.3c1.1,1.53,1.65,3.75,1.65,6.67s-.55,5.1-1.65,6.65Z"/>
        <polygon class="cls-6" points="723.69 862.6 721.21 862.6 721.21 899.34 723.69 899.34 727.69 899.34 746.28 899.34 746.28 893.23 727.69 893.23 727.69 884 744.11 884 744.11 877.94 727.69 877.94 727.69 868.71 746.28 868.71 746.28 862.6 727.69 862.6 723.69 862.6"/>
        <path class="cls-6" d="m772.1,883.91c1.37-.56,2.57-1.32,3.59-2.3,1.03-.97,1.83-2.12,2.4-3.46.58-1.33.87-2.77.87-4.32s-.3-3.05-.89-4.4c-.59-1.35-1.41-2.54-2.43-3.57-1.03-1.03-2.22-1.83-3.59-2.4-1.37-.58-2.85-.86-4.43-.86h-16.21v36.74h6.48v-14.59h4.63l9.69,14.59h7.73l-9.85-14.83c.7-.14,1.37-.33,2.02-.6Zm-14.21-14.83h8.91c1.84,0,3.24.41,4.21,1.22s1.46,1.99,1.46,3.54-.5,2.67-1.49,3.46c-.99.79-2.39,1.19-4.19,1.19h-8.91v-9.4Z"/>
        <path class="cls-6" d="m811.67,869.43c-.59-1.35-1.41-2.54-2.43-3.57-1.03-1.03-2.22-1.83-3.59-2.4-1.37-.58-2.85-.86-4.43-.86h-16.21v36.74h6.48v-14.59h9.72c1.62,0,3.12-.28,4.48-.84,1.37-.56,2.57-1.32,3.59-2.3,1.03-.97,1.83-2.12,2.4-3.46.58-1.33.87-2.77.87-4.32s-.3-3.05-.89-4.4Zm-7.08,7.86c-.99.79-2.39,1.19-4.19,1.19h-8.91v-9.4h8.91c1.84,0,3.24.41,4.21,1.22s1.46,1.99,1.46,3.54-.5,2.67-1.49,3.46Z"/>
      </g>
    </g>
  </g>
</svg>