<?xml version="1.0" encoding="UTF-8"?>
<svg id="Layer_2" data-name="Layer 2" xmlns="http://www.w3.org/2000/svg" viewBox="0 0 963.95 1079.07">
  <defs>
    <style>
      .cls-1, .cls-2, .cls-3, .cls-4 {
        fill-rule: evenodd;
      }

      .cls-1, .cls-5 {
        fill: #033;
      }

      .cls-2, .cls-6 {
        fill: #093;
      }

      .cls-3 {
        fill: #063;
      }

      .cls-4 {
        fill: #9c6;
      }
    </style>
  </defs>
  <g id="Layer_1-2" data-name="Layer 1">
    <g>
      <path class="cls-2" d="m824.35,520.79c-53.21-44.03-128.59-43.12-217.64-60.45-105.38-20.51-119.96-38.05-199.2-79.48-65.68-34.33-149.27-22.52-228.39-51.75-63.67-23.52-207.09-60.48-153.54,66.83,16.36,38.89,42.56,36.13,95.56,42.29,47.73,5.55,65.84,11.66,109.02,32.37,97.77,46.9,121.23,30.28,229.14,49,108.52,18.83,289,99.94,313.52,93.68,31.62-8.08,56.4-44.32,51.53-92.51"/>
      <path class="cls-4" d="m710.04,652.02c-48.49-49.56-236.59-59.08-316.45-86.67-68.23-23.57-253.26-92.51-318.66-80.37,1.26,78.37,225.15,281.06,462.18,233.77,58.83-11.74,149.65-20.84,172.94-66.73"/>
      <path class="cls-3" d="m583.76,417.74c70.21,12.9,131.62,12.06,199.95,39.91,87.04,35.47,116.54-11.87,126.57-92.47,10.81-86.91-40.71-64.33-157.27-30.86-55.55,15.95-157.74,23.67-169.24,83.42"/>
      <g>
        <path class="cls-1" d="m480.05,254.01l.02,2.31h1.62c-.52-.71-.98-1.37-1.65-2.31Z"/>
        <polygon class="cls-1" points="100.26 256.33 100.53 255.22 99.46 256.33 100.26 256.33"/>
        <path class="cls-1" d="m822.31,143.4c-11.63-9.93-19.22-11.28-38.13-11.45-12.71-.12-34.07,2.84-45.08,1.5-28.63-3.5-35.58-6.22-51.83-24.96-14.17-16.34-57.24-21.17-50.95-7.82l2.03,4.31c-6.24,5.85-21.2,15.58-23.57,27.42-.94,4.7-.74,5.46,3.33,7.21,7.5,3.23,13,1.63,21.51,1.31,15.53,29.8,13.48,62.9,30.69,80.98,2.65,2.78,11.08,8.18,12.72,11.65,4,8.45,1.8,16.59-1,23.59-54.76,1.28-114.57,5.72-157.89,5.74-.3-.9-.63-1.92-.99-3.07l.74-.42c.38-.18.76-.36,1.12-.51,6.5-2.69,3.97-5.74,9.66-10.4,3.39-2.78,15.7-2.08,21.03-24.83,2.41-10.29-.16-10.55-2.1-18.99,1.85.29,3.98-.4,2.2-5.89,1.83.34,2.34.6,3.39.97,1.11.39,1.02.48.74-.66-1.18-4.78-2.61-3.36-2.89-5.7-.25-2.1.52-4.22-.04-6.02-1.92-6.21-15.33-2.78-10.69,1.61-20.09,5.96-9.95,22.68-32.99,19.46-13.8-1.93-18.57-3.4-26.31-13.85-7.31-9.87-13.15-.65-15.11,7.2-.73,2.95.26,3.11,2.66,3.66-1.16,2.08-4.14,3.66,1.21,7.48-2.28,3.66-1.94,6.38,2.38,7.69.03,1.23-.16,2.68.2,3.79.63,1.95.88,1.06,1.77,2.29,2.36,3.27-.31,2.64,4.79,3.99.55,4.02,1.86,5.51,5.91,5.76-.35,2.75,1,5.75,2.52,7.97.56.82.81,1.41,1.25,2.36,6.65,14.52,17.4,7.33,19.68,15.38.06.22.12.42.17.62-11.25-.19-21.12-.77-29.14-1.89-32.58-2.8-75.17-5.82-120.89-8.09-.32-3.62-.25-8.41,0-16.4,2.1-67.96,45.06-29.11,50.98-81.42,2.56-22.66,8.72-53.71,23.17-64.35,5.79-4.26,10.72-3.88,17.29-6.29,12.62-4.64,46.62-1.36,47.96-16.9-4.68-16.33-18.26-21.08-27.63-33.06-3.12-4-2.58-4.37-5.6-9.3-5.12-8.36-8.23-11.08-12.19-13.3,5.61-12.71,1.23-15.15-13.13-7.33-37.2,20.56-58.55,28.26-102.23,37.73-46.35,10.04-77.85,7.61-125.55,4.49-21.07-1.38-42.52-2.98-63.29-4.66-27.17-2.2-38.6-.48-43.72,24.83-1.99,9.8-11.3,96.19-7.46,107.4,3.58,10.46,1.83,7.69,9.61,9.73,6.53-12.56-1.59-34.09-2.02-50.17-.47-17.64,3.67-32.81,4.34-48.45.73,20.41-1.98,32.75,2.61,53.15,4.32,19.18,12.11,28.19,2.21,44.32-10.15,16.55-7.06,51.64-11.44,73.48,0,0-.01,0-.02,0,66.82,51.96,188.45,2.62,362.66,86.41,64.34,30.94,108.09,10.62,166.42-18.24,53.94-26.7,124.8-26.29,171.26-47.87,2.41-.6,4.15-1.5,5.47-2.7.19-.1.39-.19.57-.29-.05-.04-.1-.07-.14-.11,2.35-2.41,3.28-5.93,4.54-10.61,2.97-11.04,5.85-9.67,8.56-16.79,3.3-8.66.7-16.69,1.84-25.74,4.35-34.6,22.45-51.7-7.15-76.97ZM141.02,212.61c3.46,3.42,14.45,22.84,17.88,38.69-11.08.66-21.58,1.5-31.36,2.55.31-14.81,7.31-28.19,13.48-41.24Zm36.09,37.78c-2.06-8.24-5.69-11.69-8.03-20.35-5.2-19.26,6.76-38.5,12.17-52.52,3.18,5.27,1.11,5.77,1.54,12.69,23.36,1.59,43.17,9.43,69.97,8.36l52.33-5.87c12.98-.97,16.99-5.47,25.58,38.29,1.03,5.25,1.28,12.78,1.07,20.36-52.91-2.09-107.76-2.89-154.64-.97Zm339.46,8.93c3.42.21,3,.8,4.28,3.54-1.32,0-2.62-.02-3.91-.03-.23-1.16-.34-2.37-.38-3.51Zm181.86-2.48c.25-15.15,1.3-33.28,15.89-35.2,4.5-.59,13.47,2.26,19.68,2.64,39,2.37,42.91-8.48,53.47,2.71,12.69,13.45,15.86,14.25,3.92,36.68-22.97-5.75-56.27-7.21-92.96-6.83Z"/>
      </g>
      <g>
        <polygon class="cls-5" points="144.87 785.09 135.89 785.09 89.82 932.86 43.75 785.09 34.77 785.09 13.04 785.09 0 785.09 0 982.11 34.77 982.11 34.77 854.79 74.46 982.11 105.17 982.11 144.87 854.79 144.87 982.11 179.64 982.11 179.64 785.09 166.6 785.09 144.87 785.09"/>
        <path class="cls-5" d="m323.64,897.22c0-9.46-1.16-18.06-3.48-25.79-2.32-7.72-5.89-14.34-10.72-19.85-4.83-5.5-10.96-9.75-18.4-12.75-7.44-2.99-16.28-4.49-26.51-4.49-9.66,0-18.25,1.59-25.79,4.78-7.53,3.19-13.86,7.39-18.98,12.6-5.12,5.22-9.08,11.01-11.88,17.38-2.8,6.37-4.2,12.75-4.2,19.12h34.77c0-3.09.62-5.79,1.88-8.11,1.25-2.32,3.04-4.35,5.36-6.08,2.32-1.74,5.02-2.99,8.11-3.77,3.09-.77,6.47-1.16,10.14-1.16,8.3,0,14.53,2.03,18.69,6.08,4.15,4.06,6.23,9.95,6.23,17.67v.56c-2.96.16-5.99.36-9.13.6-5.12.39-10,.68-14.63.87-10.05.58-19.27,1.88-27.67,3.91-8.4,2.03-15.6,4.92-21.58,8.69-5.99,3.77-10.62,8.6-13.91,14.49-3.29,5.89-4.93,12.99-4.93,21.29,0,13.14,3.48,23.37,10.43,30.71,6.95,7.34,17.38,11.01,31.29,11.01,9.27,0,17.62-1.59,25.06-4.78,7.43-3.19,13.76-7.63,18.98-13.33,2.52-2.75,4.74-5.76,6.7-9.02.12,1.24.25,2.42.4,3.52.67,4.92,2.12,8.94,4.35,12.02,2.22,3.09,5.26,5.32,9.13,6.66,3.86,1.35,8.88,2.03,15.07,2.03h14.49v-28.97h-9.27v-55.92Zm-43.46,47.81c-2.9,3.48-6.62,6.23-11.15,8.26-4.54,2.03-9.9,3.04-16.08,3.04-6.57,0-11.73-1.21-15.5-3.62-3.77-2.41-5.65-6.32-5.65-11.73,0-3.09.72-5.79,2.17-8.11,1.45-2.32,3.62-4.3,6.52-5.94,2.9-1.64,6.47-2.94,10.72-3.91,4.25-.96,9.08-1.64,14.49-2.03,4.25-.38,8.93-.72,14.05-1.01,3.16-.18,6.19-.36,9.13-.54v1.55c0,4.25-.72,8.45-2.17,12.6-1.45,4.16-3.62,7.97-6.52,11.45Z"/>
        <polygon class="cls-5" points="353.19 837.24 353.19 869.98 446.94 869.98 353.19 949.37 353.19 982.11 368.55 982.11 500.96 982.11 500.96 949.37 407.21 949.37 500.96 869.98 500.96 837.24 485.6 837.24 353.19 837.24"/>
        <path class="cls-5" d="m609.9,841.3c-5.22,2.71-9.52,6.62-12.89,11.73-3.31,5-5.77,11.12-7.41,18.34l-3.74-34.13h-67.22v32.74h37.09v79.39h-37.09v32.74h136.47v-32.74h-64.61v-33.9c0-8.88.43-16.17,1.3-21.88.87-5.7,2.41-10.14,4.64-13.33,2.22-3.19,5.41-5.36,9.56-6.52,4.15-1.16,9.61-1.74,16.37-1.74h32.74v-34.77h-26.66c-7.15,0-13.33,1.35-18.54,4.06Z"/>
        <path class="cls-5" d="m798.51,897.22c0-9.46-1.16-18.06-3.48-25.79-2.32-7.72-5.89-14.34-10.72-19.85-4.83-5.5-10.96-9.75-18.4-12.75-7.44-2.99-16.28-4.49-26.51-4.49-9.66,0-18.25,1.59-25.79,4.78-7.53,3.19-13.86,7.39-18.98,12.6-5.12,5.22-9.08,11.01-11.88,17.38-2.8,6.37-4.2,12.75-4.2,19.12h34.77c0-3.09.62-5.79,1.88-8.11,1.25-2.32,3.04-4.35,5.36-6.08,2.32-1.74,5.02-2.99,8.11-3.77,3.09-.77,6.47-1.16,10.14-1.16,8.3,0,14.53,2.03,18.69,6.08,4.15,4.06,6.23,9.95,6.23,17.67v.56c-2.96.16-5.99.36-9.13.6-5.12.39-10,.68-14.63.87-10.05.58-19.27,1.88-27.67,3.91-8.4,2.03-15.6,4.92-21.58,8.69-5.99,3.77-10.63,8.6-13.91,14.49-3.29,5.89-4.92,12.99-4.92,21.29,0,13.14,3.48,23.37,10.43,30.71,6.95,7.34,17.38,11.01,31.29,11.01,9.27,0,17.62-1.59,25.06-4.78,7.43-3.19,13.76-7.63,18.98-13.33,2.52-2.75,4.74-5.76,6.7-9.02.12,1.24.25,2.42.4,3.52.67,4.92,2.12,8.94,4.35,12.02,2.22,3.09,5.26,5.32,9.13,6.66,3.86,1.35,8.88,2.03,15.07,2.03h14.49v-28.97h-9.27v-55.92Zm-43.46,47.81c-2.9,3.48-6.62,6.23-11.16,8.26-4.54,2.03-9.9,3.04-16.08,3.04-6.57,0-11.73-1.21-15.5-3.62-3.77-2.41-5.65-6.32-5.65-11.73,0-3.09.72-5.79,2.17-8.11,1.45-2.32,3.62-4.3,6.52-5.94,2.9-1.64,6.47-2.94,10.72-3.91,4.25-.96,9.08-1.64,14.49-2.03,4.25-.38,8.93-.72,14.05-1.01,3.16-.18,6.19-.36,9.13-.54v1.55c0,4.25-.72,8.45-2.17,12.6-1.45,4.16-3.62,7.97-6.52,11.45Z"/>
        <path class="cls-5" d="m954.68,953.14v-55.92c0-9.46-1.16-18.06-3.48-25.79-2.32-7.72-5.89-14.34-10.72-19.85-4.83-5.5-10.96-9.75-18.4-12.75-7.44-2.99-16.28-4.49-26.51-4.49-9.66,0-18.25,1.59-25.79,4.78-7.53,3.19-13.86,7.39-18.98,12.6-5.12,5.22-9.08,11.01-11.88,17.38-2.8,6.37-4.2,12.75-4.2,19.12h34.77c0-3.09.62-5.79,1.88-8.11,1.25-2.32,3.04-4.35,5.36-6.08,2.32-1.74,5.02-2.99,8.11-3.77,3.09-.77,6.47-1.16,10.14-1.16,8.3,0,14.53,2.03,18.69,6.08,4.15,4.06,6.23,9.95,6.23,17.67v.56c-2.96.16-5.99.36-9.13.6-5.12.39-10,.68-14.63.87-10.05.58-19.27,1.88-27.67,3.91-8.4,2.03-15.6,4.92-21.58,8.69-5.99,3.77-10.63,8.6-13.91,14.49-3.29,5.89-4.92,12.99-4.92,21.29,0,13.14,3.48,23.37,10.43,30.71,6.95,7.34,17.38,11.01,31.29,11.01,9.27,0,17.62-1.59,25.06-4.78,7.43-3.19,13.76-7.63,18.98-13.33,2.52-2.75,4.74-5.76,6.7-9.02.12,1.24.25,2.42.4,3.52.67,4.92,2.12,8.94,4.35,12.02,2.22,3.09,5.26,5.32,9.13,6.66,3.86,1.35,8.88,2.03,15.07,2.03h14.49v-28.97h-9.27Zm-43.46-8.11c-2.9,3.48-6.62,6.23-11.16,8.26-4.54,2.03-9.9,3.04-16.08,3.04-6.57,0-11.73-1.21-15.5-3.62-3.77-2.41-5.65-6.32-5.65-11.73,0-3.09.72-5.79,2.17-8.11,1.45-2.32,3.62-4.3,6.52-5.94,2.9-1.64,6.47-2.94,10.72-3.91,4.25-.96,9.08-1.64,14.49-2.03,4.25-.38,8.93-.72,14.05-1.01,3.16-.18,6.19-.36,9.13-.54v1.55c0,4.25-.72,8.45-2.17,12.6-1.45,4.16-3.62,7.97-6.52,11.45Z"/>
      </g>
      <g>
        <polygon class="cls-6" points="16.34 1042.1 7.82 1023.31 0 1023.31 12.5 1049.59 12.5 1066.89 20.19 1066.89 20.19 1049.59 32.69 1023.31 24.87 1023.31 16.34 1042.1"/>
        <path class="cls-6" d="m51.59,1034.21c-4.66,0-8.33,1.49-11.02,4.45-2.69,2.97-4.04,7.04-4.04,12.21s1.35,9.29,4.04,12.24c2.69,2.95,6.37,4.42,11.02,4.42s8.37-1.47,11.02-4.42c2.65-2.95,3.97-7.03,3.97-12.24s-1.34-9.24-4.01-12.21c-2.67-2.97-6.34-4.45-10.99-4.45Zm5.64,24.58c-1.28,1.82-3.16,2.72-5.64,2.72s-4.32-.91-5.64-2.72c-1.32-1.82-1.99-4.45-1.99-7.92s.65-6.05,1.95-7.88c1.3-1.84,3.19-2.76,5.67-2.76s4.36.91,5.64,2.72c1.28,1.82,1.92,4.45,1.92,7.92s-.64,6.1-1.92,7.92Z"/>
        <path class="cls-6" d="m92.74,1048.24c0,3.25-.26,5.77-.77,7.56-.51,1.79-1.15,3.13-1.92,4.01-.77.88-1.59,1.41-2.47,1.6-.88.19-1.68.29-2.4.29-1.07,0-2.03-.23-2.88-.7-.86-.47-1.58-1.15-2.18-2.05-.6-.9-1.04-2.01-1.31-3.33-.28-1.32-.42-2.84-.42-4.55v-16.22h-7.88v17.11c0,2.31.26,4.42.77,6.35s1.28,3.57,2.31,4.93c1.03,1.37,2.31,2.43,3.85,3.17,1.54.75,3.33,1.12,5.38,1.12,3.89,0,6.75-1.19,8.59-3.56.52-.67.97-1.44,1.35-2.28v5.2h7.88v-32.05h-7.88v13.4Z"/>
        <path class="cls-6" d="m124.72,1035.74c-1.15.6-2.1,1.46-2.85,2.6-.73,1.11-1.28,2.46-1.64,4.06l-.83-7.56h-14.87v7.24h8.2v17.56h-8.2v7.24h30.19v-7.24h-14.29v-7.5c0-1.97.1-3.58.29-4.84.19-1.26.53-2.24,1.03-2.95.49-.7,1.2-1.19,2.12-1.44.92-.26,2.12-.38,3.62-.38h7.24v-7.69h-5.9c-1.58,0-2.95.3-4.1.9Z"/>
        <polygon class="cls-6" points="158.05 1023.31 155.1 1023.31 155.1 1066.89 162.8 1066.89 162.8 1049.2 182.28 1049.2 182.28 1041.96 162.8 1041.96 162.8 1030.55 184.84 1030.55 184.84 1023.31 162.8 1023.31 158.05 1023.31"/>
        <path class="cls-6" d="m216.38,1048.11c0-2.09-.26-3.99-.77-5.7-.51-1.71-1.3-3.17-2.37-4.39-1.07-1.22-2.43-2.16-4.07-2.82-1.65-.66-3.6-.99-5.86-.99-2.14,0-4.04.35-5.7,1.06s-3.07,1.63-4.2,2.79c-1.13,1.15-2.01,2.44-2.63,3.85-.62,1.41-.93,2.82-.93,4.23h7.69c0-.68.14-1.28.42-1.8.28-.51.67-.96,1.19-1.35s1.11-.66,1.79-.83c.68-.17,1.43-.26,2.24-.26,1.84,0,3.21.45,4.13,1.35.92.9,1.38,2.2,1.38,3.91v.13c-.66.04-1.32.08-2.02.13-1.13.09-2.21.15-3.24.19-2.22.13-4.26.42-6.12.87-1.86.45-3.45,1.09-4.77,1.92-1.32.83-2.35,1.9-3.08,3.21-.73,1.3-1.09,2.87-1.09,4.71,0,2.91.77,5.17,2.31,6.79s3.85,2.43,6.92,2.43c2.05,0,3.9-.35,5.54-1.06,1.64-.7,3.04-1.69,4.2-2.95.56-.61,1.05-1.28,1.48-2,.03.27.05.54.09.78.15,1.09.47,1.98.96,2.66.49.68,1.16,1.18,2.02,1.47.85.3,1.96.45,3.33.45h3.2v-6.41h-2.05v-12.37Zm-9.61,10.58c-.64.77-1.46,1.38-2.47,1.83-1,.45-2.19.67-3.56.67-1.45,0-2.6-.27-3.43-.8-.83-.53-1.25-1.4-1.25-2.6,0-.68.16-1.28.48-1.79.32-.51.8-.95,1.44-1.31.64-.36,1.43-.65,2.37-.87.94-.21,2.01-.36,3.2-.45.94-.09,1.98-.16,3.11-.22.7-.04,1.37-.08,2.02-.12v.34c0,.94-.16,1.87-.48,2.79-.32.92-.8,1.76-1.44,2.53Z"/>
        <path class="cls-6" d="m243.17,1035.74c-1.15.6-2.1,1.46-2.85,2.6-.73,1.11-1.28,2.46-1.64,4.06l-.83-7.56h-14.87v7.24h8.2v17.56h-8.2v7.24h30.19v-7.24h-14.29v-7.5c0-1.97.1-3.58.29-4.84.19-1.26.53-2.24,1.03-2.95.49-.7,1.2-1.19,2.12-1.44.92-.26,2.12-.38,3.62-.38h7.24v-7.69h-5.9c-1.58,0-2.95.3-4.1.9Z"/>
        <path class="cls-6" d="m298.83,1038.5c-.75-1.37-1.77-2.42-3.08-3.17-1.3-.75-2.98-1.12-5.03-1.12-1.92,0-3.5.31-4.74.93-1.24.62-2.2,1.52-2.88,2.69-.58.99-1,2.18-1.29,3.53-.29-1.05-.66-2.01-1.12-2.86-.75-1.37-1.77-2.42-3.08-3.17-1.3-.75-2.96-1.12-4.97-1.12s-3.56.31-4.78.93c-1.22.62-2.18,1.52-2.88,2.69-.15.25-.29.52-.42.79v-3.77h-7.69v32.05h7.69v-13.4c0-3.25.17-5.78.51-7.6.34-1.82.77-3.16,1.28-4.04.51-.88,1.11-1.42,1.79-1.63.68-.21,1.37-.32,2.05-.32,1.11,0,1.99.24,2.63.7.64.47,1.12,1.16,1.44,2.08.32.92.51,2.05.58,3.4.06,1.35.1,2.87.1,4.58v16.22h7.76v-13.4c0-3.25.16-5.78.48-7.6.32-1.82.75-3.16,1.28-4.04.53-.88,1.13-1.42,1.79-1.63.66-.21,1.34-.32,2.02-.32,1.11,0,2,.24,2.66.7.66.47,1.15,1.16,1.47,2.08s.51,2.05.58,3.4.1,2.87.1,4.58v16.22h7.69v-17.11c0-2.31-.14-4.42-.42-6.35-.28-1.92-.79-3.57-1.54-4.94Z"/>
        <rect class="cls-6" x="305.59" y="1057.22" width="9.68" height="9.68"/>
        <polygon class="cls-6" points="338.73 1023.31 335.78 1023.31 335.78 1066.89 343.47 1066.89 343.47 1049.2 362.96 1049.2 362.96 1041.96 343.47 1041.96 343.47 1030.55 365.52 1030.55 365.52 1023.31 343.47 1023.31 338.73 1023.31"/>
        <path class="cls-6" d="m391.29,1048.24c0,3.25-.26,5.77-.77,7.56-.51,1.79-1.15,3.13-1.92,4.01-.77.88-1.59,1.41-2.47,1.6-.88.19-1.68.29-2.4.29-1.07,0-2.03-.23-2.88-.7-.86-.47-1.58-1.15-2.18-2.05-.6-.9-1.04-2.01-1.31-3.33-.28-1.32-.42-2.84-.42-4.55v-16.22h-7.88v17.11c0,2.31.26,4.42.77,6.35s1.28,3.57,2.31,4.93c1.03,1.37,2.31,2.43,3.85,3.17,1.54.75,3.33,1.12,5.38,1.12,3.89,0,6.75-1.19,8.59-3.56.52-.67.97-1.44,1.35-2.28v5.2h7.88v-32.05h-7.88v13.4Z"/>
        <path class="cls-6" d="m423.33,1030.1c0-3.37-.78-5.89-2.34-7.53-1.56-1.65-3.92-2.47-7.08-2.47h-10.83v7.69h11.79c.17,0,.31.01.42.03.11.02.18.05.22.1.04.04.07.13.1.26.02.13.03.28.03.45v31.02h-11.22v7.24h30.12v-7.24h-11.22v-29.55Z"/>
        <path class="cls-6" d="m458.78,1030.1c0-3.37-.78-5.89-2.34-7.53-1.56-1.65-3.92-2.47-7.08-2.47h-10.83v7.69h11.79c.17,0,.31.01.42.03.11.02.18.05.22.1.04.04.07.13.1.26.02.13.03.28.03.45v31.02h-11.22v7.24h30.12v-7.24h-11.22v-29.55Z"/>
        <path class="cls-6" d="m490.18,1061.01l-8.58-26.17h-7.69l11.22,32.05h2.5l-1.15,3.65c-.13.34-.25.57-.35.67-.11.11-.27.16-.48.16h-9.94v7.69h9.36c1.58,0,2.85-.22,3.81-.67s1.77-1.1,2.43-1.96,1.21-1.9,1.63-3.14c.43-1.24.92-2.65,1.47-4.23l.77-2.18h.06l11.22-32.05h-7.76l-8.53,26.17Z"/>
        <path class="cls-6" d="m535.14,1037.12c.32-1.47.83-2.71,1.54-3.72.7-1,1.61-1.76,2.72-2.28,1.11-.51,2.44-.77,3.97-.77,1.37,0,2.55.21,3.56.64,1,.43,1.86,1.03,2.56,1.79.7.77,1.25,1.73,1.63,2.88s.64,2.48.77,3.97h7.56c-.38-5.21-1.92-9.35-4.61-12.4s-6.52-4.58-11.47-4.58c-2.65,0-5,.46-7.05,1.38-2.05.92-3.76,2.22-5.13,3.91-1.37,1.69-2.4,3.74-3.11,6.15-.7,2.41-1.06,5.12-1.06,8.11v5.77c0,2.99.35,5.68,1.06,8.08.71,2.39,1.74,4.44,3.11,6.15,1.37,1.71,3.08,3.02,5.13,3.94,2.05.92,4.4,1.38,7.05,1.38,2.48,0,4.67-.41,6.57-1.22s3.52-1.96,4.87-3.43c1.35-1.47,2.41-3.26,3.21-5.35.79-2.09,1.27-4.42,1.44-6.99h-7.56c-.13,1.5-.4,2.81-.8,3.94-.41,1.13-.95,2.09-1.63,2.88-.68.79-1.53,1.4-2.53,1.83-1,.43-2.19.64-3.56.64-1.54,0-2.86-.26-3.97-.77-1.11-.51-2.02-1.27-2.72-2.28-.71-1-1.22-2.24-1.54-3.72-.32-1.47-.48-3.17-.48-5.1v-5.77c0-1.92.16-3.62.48-5.1Z"/>
        <path class="cls-6" d="m582.54,1034.21c-4.66,0-8.33,1.49-11.02,4.45s-4.04,7.04-4.04,12.21,1.35,9.29,4.04,12.24c2.69,2.95,6.37,4.42,11.02,4.42s8.37-1.47,11.02-4.42c2.65-2.95,3.97-7.03,3.97-12.24s-1.34-9.24-4.01-12.21c-2.67-2.97-6.34-4.45-10.99-4.45Zm5.64,24.58c-1.28,1.82-3.16,2.72-5.64,2.72s-4.32-.91-5.64-2.72c-1.33-1.82-1.99-4.45-1.99-7.92s.65-6.05,1.96-7.88c1.3-1.84,3.19-2.76,5.67-2.76s4.36.91,5.64,2.72c1.28,1.82,1.92,4.45,1.92,7.92s-.64,6.1-1.92,7.92Z"/>
        <path class="cls-6" d="m628.49,1038.5c-1.03-1.37-2.31-2.42-3.85-3.17-1.54-.75-3.31-1.12-5.32-1.12-3.93,0-6.85,1.19-8.75,3.56-.57.71-1.04,1.52-1.44,2.41v-5.32h-7.69v32.05h7.69v-13.4c0-3.25.27-5.78.8-7.6.53-1.82,1.2-3.16,1.99-4.04.79-.88,1.63-1.42,2.53-1.63.9-.21,1.71-.32,2.44-.32,1.07,0,2.04.24,2.92.7.88.47,1.61,1.16,2.21,2.08s1.06,2.05,1.38,3.4c.32,1.35.48,2.87.48,4.58v16.22h7.69v-17.11c0-2.31-.26-4.42-.77-6.35-.51-1.92-1.28-3.57-2.31-4.94Z"/>
        <path class="cls-6" d="m662.4,1038.5c-1.03-1.37-2.31-2.42-3.85-3.17-1.54-.75-3.31-1.12-5.32-1.12-3.93,0-6.85,1.19-8.75,3.56-.57.71-1.04,1.52-1.44,2.41v-5.32h-7.69v32.05h7.69v-13.4c0-3.25.27-5.78.8-7.6.53-1.82,1.2-3.16,1.99-4.04.79-.88,1.63-1.42,2.53-1.63.9-.21,1.71-.32,2.44-.32,1.07,0,2.04.24,2.92.7.88.47,1.61,1.16,2.21,2.08s1.06,2.05,1.38,3.4c.32,1.35.48,2.87.48,4.58v16.22h7.69v-17.11c0-2.31-.26-4.42-.77-6.35-.51-1.92-1.28-3.57-2.31-4.94Z"/>
        <path class="cls-6" d="m684.32,1034.21c-4.66,0-8.33,1.49-11.02,4.45s-4.04,7.04-4.04,12.21,1.35,9.29,4.04,12.24c2.69,2.95,6.37,4.42,11.02,4.42,3.76,0,6.87-.96,9.32-2.88,2.46-1.92,4.13-4.64,5.03-8.14h-7.63c-.56,1.67-1.39,2.92-2.5,3.75-1.11.83-2.52,1.25-4.23,1.25-2.44,0-4.32-.91-5.64-2.72-1.07-1.46-1.7-3.47-1.9-5.99h22.41l.13-1.92c0-5.17-1.34-9.24-4.01-12.21-2.67-2.97-6.34-4.45-10.99-4.45Zm0,6.02c2.48,0,4.36.91,5.64,2.72.83,1.18,1.39,2.71,1.68,4.58h-14.7c.3-1.84.86-3.36,1.71-4.55,1.3-1.84,3.19-2.76,5.67-2.76Z"/>
        <path class="cls-6" d="m723.19,1059.65c-1.22,1.24-2.85,1.86-4.9,1.86-2.44,0-4.32-.91-5.64-2.72-1.33-1.82-1.99-4.45-1.99-7.92s.65-6.05,1.96-7.88c1.3-1.84,3.19-2.76,5.67-2.76,1.97,0,3.56.58,4.77,1.73s2.04,2.86,2.47,5.13h7.44c-.64-4.06-2.23-7.22-4.78-9.49-2.54-2.26-5.84-3.4-9.9-3.4-4.66,0-8.33,1.49-11.02,4.45s-4.04,7.04-4.04,12.21,1.35,9.29,4.04,12.24c2.69,2.95,6.37,4.42,11.02,4.42,4.19,0,7.55-1.17,10.09-3.52,2.54-2.35,4.09-5.64,4.65-9.87h-7.44c-.38,2.44-1.19,4.27-2.4,5.51Z"/>
        <path class="cls-6" d="m753.79,1025.23h-7.69v9.61h-9.17v7.24h9.17v14.8c0,3.38.77,5.89,2.31,7.53,1.54,1.65,3.91,2.47,7.11,2.47h11.6v-7.69h-12.5c-.17,0-.31,0-.42-.03-.11-.02-.19-.05-.26-.1-.06-.04-.11-.13-.13-.26-.02-.13-.03-.28-.03-.45v-16.28h13.33v-7.24h-13.33v-9.61Z"/>
        <path class="cls-6" d="m786.03,1034.21c-4.66,0-8.33,1.49-11.02,4.45s-4.04,7.04-4.04,12.21,1.35,9.29,4.04,12.24c2.69,2.95,6.37,4.42,11.02,4.42,3.76,0,6.87-.96,9.32-2.88,2.46-1.92,4.13-4.64,5.03-8.14h-7.63c-.56,1.67-1.39,2.92-2.5,3.75-1.11.83-2.52,1.25-4.23,1.25-2.44,0-4.32-.91-5.64-2.72-1.07-1.46-1.7-3.47-1.9-5.99h22.41l.13-1.92c0-5.17-1.34-9.24-4.01-12.21-2.67-2.97-6.34-4.45-10.99-4.45Zm0,6.02c2.48,0,4.36.91,5.64,2.72.83,1.18,1.39,2.71,1.68,4.58h-14.7c.3-1.84.86-3.36,1.71-4.55,1.3-1.84,3.19-2.76,5.67-2.76Z"/>
        <path class="cls-6" d="m827.44,1039.71s-.04-.1-.06-.15c-.77-1.6-1.89-2.89-3.36-3.88s-3.41-1.47-5.8-1.47c-1.88,0-3.62.38-5.22,1.15s-2.98,1.87-4.13,3.3-2.07,3.17-2.76,5.22c-.68,2.05-1.03,4.38-1.03,6.99s.34,4.87,1.03,6.92c.68,2.05,1.61,3.8,2.79,5.26,1.17,1.45,2.55,2.56,4.13,3.33,1.58.77,3.31,1.15,5.19,1.15,2.39,0,4.33-.49,5.8-1.47,1.47-.98,2.59-2.28,3.33-3.88.03-.07.06-.16.1-.23v4.94h7.69v-46.79h-7.69v19.6Zm-1.7,19.05c-1.3,1.84-3.17,2.76-5.61,2.76s-4.36-.91-5.64-2.72c-1.28-1.82-1.92-4.45-1.92-7.92s.64-6.1,1.92-7.92c1.28-1.82,3.16-2.72,5.64-2.72s4.3.91,5.61,2.72c1.3,1.82,1.95,4.45,1.95,7.92s-.65,6.05-1.95,7.88Z"/>
        <polygon class="cls-6" points="858.52 1023.31 855.57 1023.31 855.57 1066.89 858.52 1066.89 863.26 1066.89 885.31 1066.89 885.31 1059.65 863.26 1059.65 863.26 1048.69 882.75 1048.69 882.75 1041.51 863.26 1041.51 863.26 1030.55 885.31 1030.55 885.31 1023.31 863.26 1023.31 858.52 1023.31"/>
        <path class="cls-6" d="m915.95,1048.59c1.62-.66,3.04-1.57,4.26-2.72,1.22-1.15,2.17-2.52,2.85-4.1.68-1.58,1.03-3.29,1.03-5.13s-.35-3.62-1.06-5.22c-.71-1.6-1.67-3.01-2.88-4.23-1.22-1.22-2.64-2.17-4.26-2.85-1.62-.68-3.38-1.03-5.26-1.03h-19.23v43.58h7.69v-17.3h5.49l11.5,17.3h9.17l-11.69-17.59c.83-.16,1.63-.4,2.39-.71Zm-16.86-17.59h10.57c2.18,0,3.85.48,5,1.44s1.73,2.36,1.73,4.2-.59,3.16-1.76,4.1-2.83,1.41-4.97,1.41h-10.57v-11.15Z"/>
        <path class="cls-6" d="m962.9,1031.42c-.71-1.6-1.67-3.01-2.88-4.23-1.22-1.22-2.64-2.17-4.26-2.85-1.62-.68-3.38-1.03-5.26-1.03h-19.23v43.58h7.69v-17.3h11.54c1.92,0,3.7-.33,5.32-.99,1.62-.66,3.04-1.57,4.26-2.72,1.22-1.15,2.17-2.52,2.85-4.1.68-1.58,1.03-3.29,1.03-5.13s-.35-3.62-1.06-5.22Zm-8.4,9.33c-1.18.94-2.83,1.41-4.97,1.41h-10.57v-11.15h10.57c2.18,0,3.85.48,5,1.44s1.73,2.36,1.73,4.2-.59,3.16-1.76,4.1Z"/>
      </g>
    </g>
  </g>
</svg>